<?xml version="1.0" encoding="utf-8"?>
<!-- Generator: Adobe Illustrator 27.5.0, SVG Export Plug-In . SVG Version: 6.00 Build 0)  -->
<svg version="1.1" id="Layer_1" xmlns="http://www.w3.org/2000/svg" xmlns:xlink="http://www.w3.org/1999/xlink" x="0px" y="0px"
	 viewBox="-1625.775 -174.915 779.106 720.002" style="enable-background:new -1625.775 -174.915 779.106 720.002;"
	 xml:space="preserve">
<rect x="-1625.775" y="-174.915" style="fill:#FFFFFF;" width="779.107" height="720.002"/>
<path d="M-1063.965,275.098V133.441c0-95.024-77.275-172.336-172.263-172.336c-95.085,0-172.434,77.312-172.434,172.336v73.873
	c0.038,0.158,0.171,0.268,0.171,0.439V324.77c0,10.502,8.563,19.053,19.079,19.053c10.355,0,18.907-8.563,19.076-19.089
	l0.355-19.664c0-0.184,0.17-0.268,0.219-0.427l0.878-23.774h-1.586c-2.831,0-5.051-2.221-5.051-5.051
	c0-2.841,2.22-5.061,5.051-5.061h1.951l1.501-40.449h-1.122c-2.549,0-4.696-2.146-4.696-4.685c0-2.695,2.096-4.879,4.696-4.879
	h1.463l1.233-26.336h-0.733c-2.44,0-4.342-1.975-4.342-4.514c0-2.537,1.902-4.525,4.342-4.525h1.11l1.452-34.618
	c-1.415-0.781-2.44-2.232-2.44-3.928c0-1.476,0.792-2.708,1.952-3.477c-0.402-3.782,0.084-11.174,8.806-15.918
	c0.074-0.037,0.098-0.135,0.184-0.171c0.012-0.012,1.756-0.695,3.61-2.244c-0.012-0.11-0.072-0.208-0.072-0.33
	c0-0.293,0.086-0.549,0.17-0.805c-0.084-0.256-0.17-0.512-0.17-0.805c0-0.378,0.109-0.744,0.281-1.061
	c-0.025-0.122-0.098-0.244-0.098-0.366c0-0.463,0.231-0.891,0.536-1.281v-0.683c0-1.22,0.989-2.195,2.195-2.195
	c1.22,0,2.196,0.976,2.196,2.195v0.732c0.33,0.548,0.355,1.109,0.355,1.231c0,0.135-0.062,0.232-0.074,0.366
	c0.159,0.317,0.256,0.683,0.256,1.061c0,0.146-0.123,0.232-0.147,0.391c0.195,0.366,0.329,0.769,0.329,1.22
	c0,0.11-0.047,0.195-0.06,0.305c1.439,1.073,3.39,2.135,4.208,2.549c0.121,0.061,0.146,0.195,0.244,0.28
	c3.732,2.159,9.112,7.453,8.6,15.163c1.415,0.695,2.379,2.11,2.379,3.842c0,1.805-0.988,3.294-2.403,4.025l1.939,34.521h0.415
	c2.452,0,4.512,2.074,4.512,4.525c0,2.379-1.975,4.379-4.341,4.477l1.389,26.373h0.402c2.599,0,4.709,2.184,4.709,4.879
	c0,2.477-2.062,4.55-4.525,4.647l2.232,40.51c2.793,0.049,4.965,2.232,4.965,5.038c0,2.6-1.903,4.6-4.416,4.916l1.28,23.079
	c0.012,0.086,0.098,0.135,0.098,0.221c0,5.392,4.391,9.782,9.783,9.782c5.002,0,9.125-4.293,9.613-9.966l0.755-6.525l4.367-101.405
	c-0.012-0.121-0.133-0.194-0.133-0.316c0-4.416,2.67-8.186,6.49-9.929c-3.807-4.428-11.504-15.248-10.173-29.166
	c1.28-13.467,10.674-25.872,27.92-36.9c28.239-18.028,34.436-26.397,35.351-36.205c-1.513-0.706-2.561-1.988-2.561-3.574
	c0-1.33,0.78-2.452,1.939-3.196c-0.963-0.695-1.586-1.696-1.586-2.867c0-1.232,0.721-2.269,1.77-2.964
	c-0.855-0.634-1.416-1.537-1.416-2.574c0-1.22,0.793-2.11,1.805-2.659l0.158-4.648c-0.109-0.098-0.28-0.122-0.353-0.244
	c-0.453,0.146-0.965,0.134-1.44-0.036c-9.112-3.44-15.003-12.028-15.003-21.884c0-12.54,9.868-22.859,22.469-23.457
	c1.001,0.073,1.902,0.573,2.195,1.537c0.306,0.964-0.085,2.001-0.927,2.525c-4.83,2.989-7.721,8.112-7.721,13.687
	c0,8.722,7.112,15.833,15.858,15.833c3.501,0,6.965-1.171,9.746-3.294c0.78-0.61,1.891-0.61,2.685,0.013
	c0.792,0.61,1.059,1.683,0.67,2.598c-3.659,8.514-12.088,14.016-21.505,14.016c-0.806,0-1.525-0.183-2.318-0.244l-0.109,3.684
	c0.927,0.598,1.586,1.501,1.586,2.574c0,0.94-0.415,1.781-1.074,2.403c1.281,0.659,2.147,1.756,2.147,3.135
	c0,1.135-0.562,2.098-1.477,2.781c1.294,0.756,2.184,1.915,2.184,3.281c0,1.732-1.269,3.172-3.11,3.818
	c0.854,9.673,7.1,18.017,35.168,35.96c17.26,11.027,26.652,23.445,27.946,36.9c1.28,13.43-5.88,24.019-9.807,28.738
	c4.098,1.354,7.111,5.051,7.466,9.502c0,0.074,0.072,0.123,0.072,0.195l5.722,100.392c0,0.024-0.025,0.049-0.025,0.073
	c0,0.012,0.025,0.037,0.025,0.049c0,5.294,4.391,9.601,9.782,9.601c5.014,0,9.137-4.209,9.612-9.784l0.707-7.696
	c0.013-0.109,0.122-0.158,0.146-0.256l0.257-5.917h-1.244c-2.842,0-5.063-2.22-5.063-5.05c0-2.842,2.221-5.063,5.063-5.063h1.684
	l1.744-40.448h-1.099c-2.549,0-4.708-2.148-4.708-4.697c0-2.684,2.11-4.879,4.708-4.879h1.464l1.231-26.324h-0.743
	c-2.439,0-4.514-2.074-4.514-4.525s2.074-4.525,4.514-4.525h1.11l1.451-34.545c-1.44-0.719-2.428-2.11-2.428-3.806
	c0-1.549,0.793-2.83,1.952-3.647c-0.402-3.745,0.085-11.149,8.746-15.895c0.098-0.061,0.135-0.183,0.231-0.219
	c0.024,0,1.757-0.696,3.61-2.232c-0.012-0.11-0.072-0.208-0.072-0.33c0-0.269,0.098-0.512,0.183-0.768
	c-0.098-0.269-0.183-0.537-0.183-0.842c0-0.391,0.109-0.745,0.28-1.062c-0.024-0.122-0.098-0.244-0.098-0.366
	c0-0.488,0.243-0.915,0.536-1.293v-0.671c0-1.22,0.989-2.207,2.195-2.207c1.221,0,2.197,0.988,2.197,2.207v1.086
	c0.133,0.293,0.365,0.549,0.365,0.878c0,0.135-0.061,0.244-0.073,0.366c0.146,0.317,0.244,0.671,0.244,1.062
	c0,0.17-0.146,0.268-0.158,0.426c0.195,0.367,0.342,0.757,0.342,1.184c0,0.098-0.049,0.195-0.062,0.305
	c1.451,1.073,3.391,2.146,4.208,2.562c0.256,0.122,0.342,0.39,0.512,0.585c3.709,2.196,8.76,7.294,8.21,14.748
	c1.5,0.695,2.501,2.208,2.501,4.123c0,1.756-0.964,3.171-2.391,3.867l1.927,34.484h0.415c2.451,0,4.514,2.074,4.514,4.525
	c0,2.391-1.976,4.392-4.343,4.49l1.379,26.359h0.414c2.599,0,4.708,2.195,4.708,4.879c0,2.488-2.061,4.563-4.525,4.66l2.233,40.498
	c2.793,0.061,4.965,2.232,4.965,5.05c0,2.599-1.902,4.6-4.416,4.916l1.464,26.567c0.013,0.073,0.086,0.11,0.098,0.184l1.257,22.151
	c0.671,11.027,8.868,19.371,19.065,19.371c10.516,0,19.078-8.637,19.078-19.249v-54.758
	C-1063.819,275.38-1063.965,275.27-1063.965,275.098z M-1216.723,31.257l-3.501,2.464l1.28,4.013
	c0.306,0.903-0.023,1.891-0.792,2.452c-0.391,0.281-0.842,0.414-1.293,0.414c-0.452,0-0.915-0.134-1.293-0.427l-3.38-2.452
	l-3.536,2.476c-0.781,0.549-1.807,0.537-2.574-0.024c-0.757-0.549-1.073-1.549-0.78-2.44l1.292-4.038l-3.366-2.464
	c-0.769-0.562-1.086-1.549-0.793-2.464c0.305-0.891,1.147-1.513,2.099-1.513h4.281l1.306-4.16c0.573-1.842,3.622-1.842,4.195,0
	l1.306,4.16h4.281c0.964,0,1.818,0.622,2.098,1.537C-1215.601,29.707-1215.929,30.708-1216.723,31.257z"/>
</svg>
